<?xml version="1.0" encoding="UTF-8" standalone="no"?>
<svg
   version="1.1"
   id="Layer_1"
   x="0px"
   y="0px"
   width="100%"
   viewBox="0 0 368 315"
   enable-background="new 0 0 368 315"
   xml:space="preserve"
   sodipodi:docname="bot-avatar.svg"
   inkscape:version="1.2.2 (732a01da63, 2022-12-09)"
   xmlns:inkscape="http://www.inkscape.org/namespaces/inkscape"
   xmlns:sodipodi="http://sodipodi.sourceforge.net/DTD/sodipodi-0.dtd"
   xmlns="http://www.w3.org/2000/svg"
   xmlns:svg="http://www.w3.org/2000/svg"><defs
   id="defs33" /><sodipodi:namedview
   id="namedview31"
   pagecolor="#ffffff"
   bordercolor="#666666"
   borderopacity="1.0"
   inkscape:showpageshadow="2"
   inkscape:pageopacity="0.0"
   inkscape:pagecheckerboard="0"
   inkscape:deskcolor="#d1d1d1"
   showgrid="false"
   inkscape:zoom="2.1190756"
   inkscape:cx="175.7842"
   inkscape:cy="133.31285"
   inkscape:window-width="1920"
   inkscape:window-height="991"
   inkscape:window-x="-9"
   inkscape:window-y="-9"
   inkscape:window-maximized="1"
   inkscape:current-layer="Layer_1" />
<path
   fill="#3054E5"
   opacity="1.000000"
   stroke="none"
   d=" M369.000000,156.000000   C369.000000,161.022095 369.000000,166.044189 368.730225,171.207718   C365.698730,176.238037 362.936951,181.126923 359.910461,185.825562   C345.380951,177.804779 331.106812,169.991165 316.858978,162.129913   C313.899261,160.496857 311.856110,161.227814 310.349976,164.150223   C307.230713,170.202698 304.016052,176.206467 300.942139,182.281647   C299.451996,185.226746 298.167786,187.825775 294.514587,189.189636   C289.730133,190.975830 288.074158,196.749756 290.082275,201.411911   C291.995056,205.852676 296.902710,208.178162 301.661591,206.898758   C306.389282,205.627747 309.372894,200.659317 308.463989,195.643799   C308.203491,194.206238 307.478699,192.486267 307.980286,191.338791   C310.550232,185.459213 313.451233,179.724319 316.550537,173.286697   C327.409637,178.875702 337.548309,184.141373 347.738281,189.305878   C350.353516,190.631317 353.130524,191.637421 355.845367,193.149017   C350.898590,200.705597 346.164856,208.074127 340.889160,215.031723   C338.103210,218.705872 334.921844,223.138199 330.947144,224.618134   C324.076324,227.176422 316.448547,227.701828 308.710205,229.079025   C300.382416,230.175171 292.490173,231.329330 284.581787,232.359238   C257.069916,235.942047 229.547882,239.447159 202.040512,243.063766   C195.660278,243.902649 189.322739,245.066177 182.529190,246.047241   C178.841248,246.343201 175.583252,246.619247 172.339355,247.011826   C164.564560,247.952728 156.812286,249.112885 149.020157,249.866226   C143.489502,250.400925 137.488800,251.851364 132.435257,250.372849   C120.956856,247.014587 109.933174,242.102081 99.004669,237.517670   C100.207596,235.094376 101.187553,232.997528 102.043915,230.851364   C106.664223,219.272263 111.338303,207.713333 115.803764,196.074524   C117.182487,192.480972 119.053726,191.782516 122.601341,193.133438   C132.698593,196.978455 142.939056,200.446487 153.049637,204.257935   C157.306076,205.862518 159.875214,205.142059 161.342758,200.497086   C163.745422,192.892303 166.523392,185.406052 169.147537,177.871353   C170.322678,174.497208 171.069473,171.210785 174.958618,169.223145   C178.739609,167.290756 179.248383,161.773636 176.946548,158.148895   C174.571457,154.408875 169.952667,153.101486 166.011215,155.053558   C162.074661,157.003235 159.659378,161.891663 161.946289,165.483658   C164.624130,169.689651 163.528259,173.242096 162.105362,177.164734   C160.914917,180.446625 160.034912,183.850311 158.703308,187.070160   C154.623703,196.934845 156.596497,196.924042 145.978897,192.387863   C136.348648,188.273514 126.808098,183.949509 117.214714,179.748276   C114.750916,178.669312 112.290558,178.143890 110.966599,181.364609   C103.895950,198.564972 96.861725,215.780289 89.458527,232.975800   C82.197021,229.644104 75.060379,226.388641 74.073227,217.501831   C72.542107,203.717911 71.299850,189.901886 70.104416,175.740097   C71.852165,168.760147 73.346992,162.118134 75.038177,155.526474   C76.185860,151.053207 78.978226,147.935776 83.400002,146.306290   C90.895233,143.544205 98.234306,140.276627 105.870644,137.997650   C118.402229,134.257721 130.631058,128.960175 144.217300,129.932373   C159.790054,131.046722 175.415558,131.526779 190.956390,132.954605   C205.509628,134.291702 218.943817,129.894348 232.577469,126.248283   C239.372559,124.431076 246.096680,122.348473 252.852905,120.385918   C252.775436,119.878395 252.697968,119.370880 252.620483,118.863358   C235.273056,120.009552 217.925629,121.155739 200.578201,122.301933   C201.659058,120.266991 202.874115,119.114296 204.318924,118.523521   C213.552933,114.747818 218.005997,107.614006 219.575928,98.046143   C220.390701,93.080452 222.008759,88.246567 223.263916,83.353134   C222.810318,83.105911 222.356735,82.858696 221.903137,82.611473   C219.331711,85.315948 216.467636,87.800461 214.240463,90.763672   C205.461456,102.443954 194.087845,110.943718 181.438400,117.862167   C179.690094,118.818382 177.248718,119.030251 175.205490,118.823372   C169.755814,118.271576 164.372116,117.007507 158.918564,116.568039   C149.886002,115.840157 140.479095,113.768204 131.839127,115.429993   C114.890236,118.689919 98.411011,124.328331 81.635170,128.578857   C73.556168,130.625854 67.438942,134.566818 63.500275,142.059998   C61.418877,146.019760 58.432022,149.493423 56.167061,153.369507   C53.594410,157.772110 51.371494,162.379089 48.640762,166.850769   C43.416702,164.479858 38.548420,162.155411 33.852531,159.520660   C34.760296,157.728485 35.541676,156.267456 36.224060,154.761581   C44.943249,135.520264 53.719307,116.304092 62.296597,96.999634   C64.000526,93.164680 66.229187,92.299080 70.104446,93.474937   C75.988907,95.260460 81.979568,96.708405 87.954704,98.179596   C95.604980,100.063240 95.947098,100.021118 99.604103,92.922844   C105.089951,82.274788 110.443428,71.553696 115.589775,60.738316   C117.310890,57.121269 119.369675,56.430298 123.058784,57.591728   C136.223846,61.736446 149.495758,65.542343 162.653336,69.709740   C164.473572,70.286255 166.170425,71.939453 167.420914,73.498138   C171.091125,78.072861 176.852966,79.445229 181.651352,76.580193   C186.302933,73.802811 188.137238,68.011375 185.919815,63.103340   C183.631821,58.039112 178.011169,55.878468 172.489044,57.400280   C170.144897,58.046291 167.353546,58.140930 165.009033,57.538383   C150.999344,53.937840 137.098007,49.915085 123.084724,46.329475   C114.273575,44.074940 114.108818,44.252472 109.977898,52.304016   C103.978043,63.998295 98.071526,75.742310 92.297852,87.549545   C90.763741,90.686836 88.889626,91.644577 85.576653,90.499077   C79.762184,88.488640 73.868088,86.709167 68.013664,84.813438   C61.118752,82.580803 60.907059,82.469299 57.823124,88.925468   C47.713478,110.089836 37.761654,131.329697 27.799370,152.564102   C27.180147,153.883972 26.992905,155.406479 26.256479,156.596802   C23.397276,155.152344 20.684748,154.236221 18.424786,152.667953   C15.400768,150.569473 11.198304,148.476852 10.196645,145.480774   C7.436091,137.223663 6.078323,128.497589 4.500801,119.873596   C5.911911,117.617264 7.277562,115.537743 8.013614,113.255203   C11.143738,103.548500 14.613248,94.113464 21.487358,86.204483   C26.502703,80.434090 31.081095,74.264954 35.604156,68.090355   C41.536335,59.992119 48.693584,53.680805 58.133301,49.795471   C68.750763,45.425373 79.208725,40.633446 89.556023,35.651077   C99.644920,30.793125 109.940651,28.025902 121.313118,28.781868   C130.094894,29.365622 139.058609,29.585583 147.759796,28.504860   C164.912949,26.374361 181.981979,23.464300 199.006271,20.430372   C213.129059,17.913523 226.744095,17.083860 240.592285,22.852228   C258.406189,30.272490 276.538513,37.096558 294.943115,42.872902   C307.763733,46.896706 315.696747,54.639328 321.468781,66.367111   C326.585449,76.763298 332.632141,86.863495 339.521637,96.166161   C343.813995,101.962044 350.435059,106.033348 356.353149,111.087486   C358.407196,118.873581 360.119110,126.450798 361.483887,133.944107   C360.361786,133.560287 359.588440,133.256332 358.811768,132.961105   C342.349091,126.703377 325.922485,120.347748 309.397034,114.260445   C305.354828,112.771461 304.392303,110.767578 305.873322,106.792091   C307.377075,102.755768 308.340759,98.515793 309.495636,94.352432   C312.202515,84.593826 312.179382,84.355797 302.824615,81.045479   C294.837769,78.219231 286.688446,75.849449 278.722076,72.970352   C277.034332,72.360397 275.318573,70.673332 274.497742,69.039429   C272.178284,64.422600 267.811554,62.316967 263.444550,64.233253   C259.389130,66.012825 257.569397,71.165413 259.566986,75.212646   C261.651001,79.434998 266.267212,80.643379 271.086670,78.505997   C272.389160,77.928352 274.289429,77.598038 275.509247,78.114082   C283.160248,81.350830 290.675171,84.907280 298.281769,88.251900   C301.027679,89.459274 301.985382,91.108208 301.063477,94.121979   C299.265472,99.999855 297.670776,105.942810 296.112396,111.890388   C294.124512,119.477249 294.120789,119.635323 301.360809,122.394554   C320.925446,129.850784 340.531219,137.199661 360.158722,144.488770   C361.558289,145.008514 363.266510,144.697220 364.904236,145.185364   C365.322479,147.143661 365.473969,148.767303 366.059814,150.215195   C366.868195,152.212936 368.004272,154.078079 369.000000,156.000000  M269.462738,189.445343   C278.742218,178.031281 286.298798,165.630493 291.434784,151.692184   C289.615784,151.924652 288.175720,152.437180 287.207947,153.416458   C281.595154,159.095703 276.241730,165.038361 270.499512,170.579910   C266.990631,173.966156 263.370697,178.215164 259.030884,179.523621   C253.151184,181.296341 246.530029,180.569702 240.234268,181.018265   C236.698929,181.270157 235.119003,179.746674 234.722260,176.236923   C234.318649,172.666504 233.404633,169.153793 232.714127,165.615814   C232.197037,165.620392 231.679962,165.624985 231.162888,165.629562   C229.143234,170.329300 227.355118,175.145828 225.055588,179.704391   C220.290573,189.150665 213.764175,196.103912 201.888550,195.073456   C198.252502,194.757965 194.552994,194.868820 190.903763,195.108154   C188.034866,195.296295 185.198639,195.982407 182.347916,196.447296   C182.274872,196.959503 182.201843,197.471695 182.128815,197.983902   C183.740005,198.812653 185.266785,199.974518 186.978088,200.408234   C192.294510,201.755676 197.769501,202.527847 203.017365,204.082291   C209.278366,205.936798 214.248932,204.072510 219.181412,200.317841   C224.996582,195.891251 230.958603,191.991653 238.933411,191.863571   C248.876801,191.703873 258.803467,190.502701 269.462738,189.445343  z"
   id="path2" />


<path
   fill="#6489FE"
   opacity="1.000000"
   stroke="none"
   d=" M4.500800,119.873596   C3.318856,116.739555 2.472018,113.522102 1.312589,110.652328   C1.000000,102.979103 1.000000,94.958199 1.244594,86.813721   C6.677662,79.425423 11.515010,71.873772 17.152166,64.975723   C22.928572,57.907272 28.442085,49.814381 35.921120,45.114655   C51.730511,35.180252 68.881645,27.408171 85.223305,18.285025   C98.013512,11.144570 111.741089,11.719460 125.536285,12.076882   C132.635742,12.260825 139.873581,13.724027 146.798431,12.777262   C166.991882,10.016423 187.062057,6.349882 207.164093,2.941348   C207.865616,2.822393 208.391998,1.670476 209.000000,1.000004   C216.020950,1.000000 223.041901,1.000000 230.180786,1.275856   C230.616348,1.935078 230.857132,2.515749 231.262558,2.673606   C255.587234,12.144846 279.974609,21.458015 304.219482,31.128626   C308.877869,32.986725 314.105560,35.317535 317.127563,39.017361   C325.766022,49.593445 333.580688,60.863796 341.387787,72.091652   C349.490143,83.744118 354.188782,96.798553 356.011047,110.878616   C350.435059,106.033348 343.813995,101.962044 339.521637,96.166161   C332.632141,86.863495 326.585449,76.763298 321.468781,66.367111   C315.696747,54.639328 307.763733,46.896706 294.943115,42.872902   C276.538513,37.096558 258.406189,30.272490 240.592285,22.852228   C226.744095,17.083860 213.129059,17.913523 199.006271,20.430372   C181.981979,23.464300 164.912949,26.374361 147.759796,28.504860   C139.058609,29.585583 130.094894,29.365622 121.313118,28.781868   C109.940651,28.025902 99.644920,30.793125 89.556023,35.651077   C79.208725,40.633446 68.750763,45.425373 58.133301,49.795471   C48.693584,53.680805 41.536335,59.992119 35.604156,68.090355   C31.081095,74.264954 26.502703,80.434090 21.487358,86.204483   C14.613248,94.113464 11.143738,103.548500 8.013614,113.255203   C7.277562,115.537743 5.911911,117.617264 4.500800,119.873596  z"
   id="path8" />


<path
   fill="#3054E5"
   opacity="1.000000"
   stroke="none"
   d=" M311.853302,239.084198   C311.374603,249.123901 308.109039,258.577637 301.857574,265.999115   C298.610657,269.853760 292.023712,271.528870 286.618958,272.802582   C274.623932,275.629364 262.444275,277.708313 250.284988,279.767914   C248.233704,280.115356 245.891251,278.902435 243.713333,278.301636   C241.280167,277.630402 238.881210,276.835144 235.785110,275.884369   C240.192917,284.620239 244.346802,292.654388 248.308243,300.782318   C250.506821,305.293182 253.228683,309.771057 251.789124,315.596191   C246.645065,316.000000 241.290146,316.000000 235.467590,316.000000   C234.839233,315.400665 234.736694,314.301208 234.509293,314.274719   C227.738708,313.486877 224.944702,308.113556 221.681931,303.282043   C211.872757,288.756470 202.067673,274.228149 192.623306,259.343811   C207.549454,257.991821 222.112411,256.983917 236.677353,256.005737   C251.895981,254.983643 267.254211,254.959824 281.895935,249.787811   C291.894470,246.255966 301.868378,242.654495 311.853302,239.084198  z"
   id="path14" />
<path
   fill="#2043B8"
   opacity="1.000000"
   stroke="none"
   d=" M70.104416,175.740097   C63.176464,173.135757 56.417797,170.172043 49.327835,167.052765   C51.371494,162.379089 53.594410,157.772110 56.167061,153.369507   C58.432022,149.493423 61.418877,146.019760 63.500275,142.059998   C67.438942,134.566818 73.556168,130.625854 81.635170,128.578857   C98.411011,124.328331 114.890236,118.689919 131.839127,115.429993   C140.479095,113.768204 149.886002,115.840157 158.918564,116.568039   C164.372116,117.007507 169.755814,118.271576 175.205490,118.823372   C177.248718,119.030251 179.690094,118.818382 181.438400,117.862167   C194.087845,110.943718 205.461456,102.443954 214.240463,90.763672   C216.467636,87.800461 219.331711,85.315948 221.903137,82.611473   C222.356735,82.858696 222.810318,83.105911 223.263916,83.353134   C222.008759,88.246567 220.390701,93.080452 219.575928,98.046143   C218.005997,107.614006 213.552933,114.747818 204.318924,118.523521   C202.874115,119.114296 201.659058,120.266991 200.578201,122.301933   C217.925629,121.155739 235.273056,120.009552 252.620483,118.863358   C252.697968,119.370880 252.775436,119.878395 252.852905,120.385918   C246.096680,122.348473 239.372559,124.431076 232.577469,126.248283   C218.943817,129.894348 205.509628,134.291702 190.956390,132.954605   C175.415558,131.526779 159.790054,131.046722 144.217300,129.932373   C130.631058,128.960175 118.402229,134.257721 105.870644,137.997650   C98.234306,140.276627 90.895233,143.544205 83.400002,146.306290   C78.978226,147.935776 76.185860,151.053207 75.038177,155.526474   C73.346992,162.118134 71.852165,168.760147 70.104416,175.740097  z"
   id="path16" />
<path
   fill="#ABF061"
   opacity="1.000000"
   stroke="none"
   d=" M33.852535,159.520660   C31.486572,158.852539 29.292999,157.874130 26.852055,156.865219   C26.992905,155.406479 27.180147,153.883972 27.799370,152.564102   C37.761654,131.329697 47.713478,110.089836 57.823124,88.925468   C60.907059,82.469299 61.118752,82.580803 68.013664,84.813438   C73.868088,86.709167 79.762184,88.488640 85.576653,90.499077   C88.889626,91.644577 90.763741,90.686836 92.297852,87.549545   C98.071526,75.742310 103.978043,63.998295 109.977898,52.304016   C114.108818,44.252472 114.273575,44.074940 123.084724,46.329475   C137.098007,49.915085 150.999344,53.937840 165.009033,57.538383   C167.353546,58.140930 170.144897,58.046291 172.489044,57.400280   C178.011169,55.878468 183.631821,58.039112 185.919815,63.103340   C188.137238,68.011375 186.302933,73.802811 181.651352,76.580193   C176.852966,79.445229 171.091125,78.072861 167.420914,73.498138   C166.170425,71.939453 164.473572,70.286255 162.653336,69.709740   C149.495758,65.542343 136.223846,61.736446 123.058784,57.591728   C119.369675,56.430298 117.310890,57.121269 115.589775,60.738316   C110.443428,71.553696 105.089951,82.274788 99.604103,92.922844   C95.947098,100.021118 95.604980,100.063240 87.954704,98.179596   C81.979568,96.708405 75.988907,95.260460 70.104446,93.474937   C66.229187,92.299080 64.000526,93.164680 62.296597,96.999634   C53.719307,116.304092 44.943249,135.520264 36.224060,154.761581   C35.541676,156.267456 34.760296,157.728485 33.852535,159.520660  z"
   id="path18" />
<path
   fill="#2043B8"
   opacity="1.000000"
   stroke="none"
   d=" M311.816284,238.705688   C301.868378,242.654495 291.894470,246.255966 281.895935,249.787811   C267.254211,254.959824 251.895981,254.983643 236.677353,256.005737   C222.112411,256.983917 207.549454,257.991821 192.563416,259.008179   C189.183426,254.915878 186.225632,250.802032 183.116699,246.384247   C189.322739,245.066177 195.660278,243.902649 202.040512,243.063766   C229.547882,239.447159 257.069916,235.942047 284.581787,232.359238   C292.490173,231.329330 300.382416,230.175171 308.710205,229.079041   C310.018646,232.162445 310.898987,235.244827 311.816284,238.705688  z"
   id="path20" />
<path
   fill="#AAEF61"
   opacity="1.000000"
   stroke="none"
   d=" M99.004669,237.517670   C95.898529,236.400818 93.072395,234.980286 90.030579,233.275085   C96.861725,215.780289 103.895950,198.564972 110.966599,181.364609   C112.290558,178.143890 114.750916,178.669312 117.214714,179.748276   C126.808098,183.949509 136.348648,188.273514 145.978897,192.387863   C156.596497,196.924042 154.623703,196.934845 158.703308,187.070160   C160.034912,183.850311 160.914917,180.446625 162.105362,177.164734   C163.528259,173.242096 164.624130,169.689651 161.946289,165.483658   C159.659378,161.891663 162.074661,157.003235 166.011215,155.053558   C169.952667,153.101486 174.571457,154.408875 176.946548,158.148895   C179.248383,161.773636 178.739609,167.290756 174.958618,169.223145   C171.069473,171.210785 170.322678,174.497208 169.147537,177.871353   C166.523392,185.406052 163.745422,192.892303 161.342758,200.497086   C159.875214,205.142059 157.306076,205.862518 153.049637,204.257935   C142.939056,200.446487 132.698593,196.978455 122.601341,193.133438   C119.053726,191.782516 117.182487,192.480972 115.803764,196.074524   C111.338303,207.713333 106.664223,219.272263 102.043915,230.851364   C101.187553,232.997528 100.207596,235.094376 99.004669,237.517670  z"
   id="path22" />
<path
   fill="#AAEF61"
   opacity="1.000000"
   stroke="none"
   d=" M361.483887,133.944107   C362.835754,137.360367 363.840454,140.692719 364.838196,144.398697   C363.266510,144.697220 361.558289,145.008514 360.158722,144.488770   C340.531219,137.199661 320.925446,129.850784 301.360809,122.394554   C294.120789,119.635323 294.124512,119.477249 296.112396,111.890388   C297.670776,105.942810 299.265472,99.999855 301.063477,94.121979   C301.985382,91.108208 301.027679,89.459274 298.281769,88.251900   C290.675171,84.907280 283.160248,81.350830 275.509247,78.114082   C274.289429,77.598038 272.389160,77.928352 271.086670,78.505997   C266.267212,80.643379 261.651001,79.434998 259.566986,75.212646   C257.569397,71.165413 259.389130,66.012825 263.444550,64.233253   C267.811554,62.316967 272.178284,64.422600 274.497742,69.039429   C275.318573,70.673332 277.034332,72.360397 278.722076,72.970352   C286.688446,75.849449 294.837769,78.219231 302.824615,81.045479   C312.179382,84.355797 312.202515,84.593826 309.495636,94.352432   C308.340759,98.515793 307.377075,102.755768 305.873322,106.792091   C304.392303,110.767578 305.354828,112.771461 309.397034,114.260445   C325.922485,120.347748 342.349091,126.703377 358.811768,132.961105   C359.588440,133.256332 360.361786,133.560287 361.483887,133.944107  z"
   id="path24" />
<path
   fill="#2043B8"
   opacity="1.000000"
   stroke="none"
   d=" M269.100037,189.598282   C258.803467,190.502701 248.876801,191.703873 238.933411,191.863571   C230.958603,191.991653 224.996582,195.891251 219.181412,200.317841   C214.248932,204.072510 209.278366,205.936798 203.017365,204.082291   C197.769501,202.527847 192.294510,201.755676 186.978088,200.408234   C185.266785,199.974518 183.740005,198.812653 182.128815,197.983902   C182.201843,197.471695 182.274872,196.959503 182.347916,196.447296   C185.198639,195.982407 188.034866,195.296295 190.903763,195.108154   C194.552994,194.868820 198.252502,194.757965 201.888550,195.073456   C213.764175,196.103912 220.290573,189.150665 225.055588,179.704391   C227.355118,175.145828 229.143234,170.329300 231.162888,165.629562   C231.679962,165.624985 232.197037,165.620392 232.714127,165.615814   C233.404633,169.153793 234.318649,172.666504 234.722260,176.236923   C235.119003,179.746674 236.698929,181.270157 240.234268,181.018265   C246.530029,180.569702 253.151184,181.296341 259.030884,179.523621   C263.370697,178.215164 266.990631,173.966156 270.499512,170.579910   C276.241730,165.038361 281.595154,159.095703 287.207947,153.416458   C288.175720,152.437180 289.615784,151.924652 291.434784,151.692184   C286.298798,165.630493 278.742218,178.031281 269.100037,189.598282  z"
   id="path26" />
<path
   fill="#AAEF61"
   opacity="1.000000"
   stroke="none"
   d=" M359.910461,185.825562   C358.834534,188.080856 357.493866,190.145905 355.993225,192.500595   C353.130524,191.637421 350.353516,190.631317 347.738281,189.305878   C337.548309,184.141373 327.409637,178.875702 316.550537,173.286697   C313.451233,179.724319 310.550232,185.459213 307.980286,191.338791   C307.478699,192.486267 308.203491,194.206238 308.463989,195.643799   C309.372894,200.659317 306.389282,205.627747 301.661591,206.898758   C296.902710,208.178162 291.995056,205.852676 290.082275,201.411911   C288.074158,196.749756 289.730133,190.975830 294.514587,189.189636   C298.167786,187.825775 299.451996,185.226746 300.942139,182.281647   C304.016052,176.206467 307.230713,170.202698 310.349976,164.150223   C311.856110,161.227814 313.899261,160.496857 316.858978,162.129913   C331.106812,169.991165 345.380951,177.804779 359.910461,185.825562  z"
   id="path28" />
</svg>
