<?xml version="1.0" encoding="UTF-8" standalone="no"?>
<svg
   version="1.1"
   id="Layer_1"
   x="0px"
   y="0px"
   width="100%"
   viewBox="0 0 368 315"
   enable-background="new 0 0 368 315"
   xml:space="preserve"
   sodipodi:docname="human-avatar.svg"
   inkscape:version="1.2.2 (732a01da63, 2022-12-09)"
   xmlns:inkscape="http://www.inkscape.org/namespaces/inkscape"
   xmlns:sodipodi="http://sodipodi.sourceforge.net/DTD/sodipodi-0.dtd"
   xmlns="http://www.w3.org/2000/svg"
   xmlns:svg="http://www.w3.org/2000/svg"><defs
   id="defs31" /><sodipodi:namedview
   id="namedview29"
   pagecolor="#ffffff"
   bordercolor="#666666"
   borderopacity="1.0"
   inkscape:showpageshadow="2"
   inkscape:pageopacity="0.0"
   inkscape:pagecheckerboard="0"
   inkscape:deskcolor="#d1d1d1"
   showgrid="false"
   inkscape:zoom="2.1190756"
   inkscape:cx="222.73864"
   inkscape:cy="163.04279"
   inkscape:window-width="1920"
   inkscape:window-height="991"
   inkscape:window-x="-9"
   inkscape:window-y="-9"
   inkscape:window-maximized="1"
   inkscape:current-layer="Layer_1" />
<path
   fill="#FFA9D8"
   opacity="1.000000"
   stroke="none"
   d=" M369.000000,156.000000   C369.000000,161.022095 369.000000,166.044189 368.705475,171.228394   C367.958008,171.843735 367.394745,172.229126 367.068268,172.760086   C358.287750,187.040939 349.726501,201.462555 340.638885,215.544601   C338.262756,219.226685 334.770508,223.275696 330.897125,224.665680   C323.997467,227.141663 316.416290,227.718399 308.692261,229.079193   C305.969666,229.381439 303.675049,229.694794 301.380157,230.006363   C283.493195,232.434723 265.613403,234.917709 247.716949,237.273956   C232.615372,239.262238 217.486603,241.044189 202.385666,243.037140   C195.879120,243.895859 189.412445,245.056595 182.492279,246.043854   C178.810226,246.338455 175.556778,246.614059 172.318222,247.011215   C164.553680,247.963364 156.817108,249.222519 149.028839,249.876526   C143.228058,250.363647 137.167557,251.089798 131.565033,249.980576   C114.799370,246.661194 99.826408,238.500549 84.732719,230.884979   C79.344032,228.166092 74.703896,224.315308 74.026619,217.602005   C72.631401,203.772156 71.297264,189.936157 70.110535,175.744019   C71.195297,171.012695 72.201118,166.657028 72.999901,162.263733   C74.570183,153.627167 78.436485,147.043716 87.569252,144.564651   C90.918320,143.655548 94.057396,142.000702 97.351112,140.855225   C116.052216,134.351364 134.696274,128.022949 155.107239,129.989700   C170.939987,131.515305 186.868118,132.062363 202.758484,132.962692   C204.551315,133.064270 206.435471,132.869354 208.173462,132.414932   C221.656921,128.889420 235.118149,125.278473 248.576401,121.657387   C250.167099,121.229393 251.698364,120.580528 253.257187,120.034065   C249.710449,119.204536 246.408295,119.006332 243.137054,119.240189   C231.404709,120.078911 219.607452,122.369621 207.974014,121.698174   C188.837784,120.593704 169.818771,117.527306 150.731400,115.463203   C145.350098,114.881279 139.637207,113.729591 134.534805,114.877258   C118.357506,118.515953 102.512024,123.647316 86.313942,127.170280   C74.535385,129.732025 66.001648,135.440659 60.760452,146.282227   C59.470333,148.950897 57.321674,151.191452 55.857929,153.792160   C53.443005,158.082901 51.264400,162.506653 48.624832,166.841522   C37.697025,161.835114 27.048723,157.024078 16.621862,151.773300   C14.025289,150.465714 10.912719,148.107620 10.158692,145.595612   C7.642673,137.213577 6.089571,128.542511 4.507820,119.910049   C5.916367,117.659851 7.057478,115.514114 8.039603,113.297913   C11.392594,105.731766 14.011103,97.738152 18.202723,90.674881   C22.232895,83.883652 27.647045,77.852821 32.861778,71.842461   C38.154568,65.742142 42.995140,58.407776 49.720490,54.568642   C63.399334,46.760143 78.239418,40.995575 92.551125,34.282459   C101.301491,30.177969 110.324890,28.242205 120.078499,28.915760   C149.246506,30.930017 177.384796,23.092897 205.954285,19.422798   C215.765060,18.162483 225.184799,17.244091 234.849106,20.971443   C257.810059,29.827053 280.953857,38.217918 304.131500,46.494896   C309.364807,48.363762 312.918427,51.486538 315.500885,56.167618   C318.634277,61.847263 321.932526,67.436188 325.049835,73.124413   C330.960144,83.909004 336.555267,94.930244 345.909607,103.289177   C349.064972,106.108803 352.681671,108.412170 356.441833,111.133125   C356.865112,111.973068 356.855621,112.651016 357.014648,113.286812   C360.293274,126.392990 363.559479,139.502518 366.936584,152.583405   C367.255188,153.817581 368.295013,154.865570 369.000000,156.000000  M142.782562,191.770874   C137.924988,190.702103 133.088120,189.516754 128.195114,188.647461   C126.988655,188.433121 125.599449,189.247360 124.294258,189.588760   C124.945480,190.775803 125.296745,192.423233 126.296829,193.074799   C132.554474,197.151718 138.928574,201.053314 145.322128,204.916931   C149.132935,207.219833 152.972046,207.175339 157.213379,205.527145   C166.666458,201.853592 176.198380,198.325455 185.875366,195.306030   C192.143158,193.350357 198.782608,191.017654 205.152313,191.287720   C217.861679,191.826584 230.490982,194.121811 243.170944,195.533722   C251.394897,196.449432 259.931000,199.772385 267.325989,192.819565   C273.260437,187.239990 279.342712,181.815628 285.193237,176.150803   C286.253601,175.124100 286.510925,173.268021 287.750275,170.360886   C284.455627,171.468903 282.661224,171.796692 281.146698,172.631989   C276.050751,175.442612 271.141785,178.600311 265.992096,181.302948   C261.939423,183.429886 257.667328,186.560745 253.439301,186.647720   C243.361938,186.854980 233.242538,185.643005 223.162216,184.753830   C219.479126,184.428955 215.858505,183.395889 211.926971,182.630951   C213.416031,176.123657 214.732635,170.370041 216.049240,164.616425   C215.620758,164.455750 215.192276,164.295090 214.763794,164.134415   C213.674347,165.076691 212.467606,165.913788 211.513550,166.977493   C201.758499,177.853561 190.654266,186.421875 175.560669,188.276459   C175.399902,188.296219 175.252701,188.415100 175.091400,188.443451   C164.665710,190.274689 154.686920,196.137085 142.782562,191.770874  M237.533142,84.062180   C242.208450,82.929573 246.837006,81.485847 251.575500,80.773590   C254.741302,80.297737 258.234772,80.248695 261.277679,81.097794   C266.533203,82.564293 271.527832,84.945595 276.679199,86.812599   C280.231567,88.100082 282.805847,90.214897 283.175323,94.143478   C284.234283,105.403702 291.741821,111.020561 301.160828,115.072731   C303.449707,116.057442 305.595795,117.376343 307.891052,118.343399   C309.625244,119.074066 311.492462,119.489044 313.300476,120.044525   C313.648193,119.548447 313.995941,119.052368 314.343658,118.556290   C312.792664,116.976845 311.445038,115.102974 309.656403,113.867622   C300.699249,107.681175 293.934296,100.305389 294.881561,88.231026   C300.792694,85.883453 306.881866,83.465157 312.971069,81.046860   C312.808380,80.506210 312.645691,79.965561 312.482971,79.424911   C311.571228,79.268227 310.651672,78.941467 309.748993,78.982712   C304.286835,79.232231 298.787445,79.244820 293.377197,79.936378   C281.091827,81.506721 271.282928,75.103615 261.004547,70.244186   C259.960175,69.750412 259.371399,67.860947 258.975739,66.501419   C257.214081,60.448483 255.713287,54.317875 253.866348,48.292549   C253.271637,46.352413 251.905289,44.648811 250.891937,42.837002   C250.262695,43.022057 249.633453,43.207108 249.004211,43.392159   C249.004211,47.113651 248.264572,51.020184 249.140732,54.522488   C251.944077,65.728302 246.710144,71.990105 237.299408,76.602554   C234.115219,78.163208 231.620712,81.131004 228.811020,83.455757   C229.085892,84.003372 229.360779,84.550987 229.635651,85.098602   C231.994385,84.810349 234.353119,84.522102 237.533142,84.062180  M48.952530,94.517433   C50.505310,93.921257 52.105171,93.424332 53.603584,92.713547   C68.674080,85.564705 83.656273,78.496964 101.223457,80.759064   C105.403847,81.297363 108.463943,82.404648 110.985931,85.554733   C113.684608,88.925514 116.348404,92.333000 119.220398,95.552307   C120.519737,97.008766 122.285675,98.048950 123.839935,99.277985   C124.232719,99.003342 124.625496,98.728691 125.018280,98.454048   C124.723991,96.757256 124.747971,94.921379 124.078163,93.388687   C121.679611,87.900246 118.950691,82.556580 116.532181,77.076302   C114.669243,72.854935 111.531837,70.650261 107.043968,70.010643   C100.644516,69.098595 94.288986,67.757614 87.862617,67.200249   C83.970634,66.862701 79.018494,66.261322 76.206146,68.196274   C65.853897,75.318794 56.089600,83.320580 46.350670,91.292778   C43.850613,93.339302 44.674484,95.169792 48.952530,94.517433  M164.424133,48.887245   C167.051590,44.288300 169.679031,39.689358 172.962418,33.942303   C170.649414,34.498253 169.859116,34.447914 169.462708,34.818695   C159.920593,43.744034 150.363708,52.656082 141.010910,61.777069   C140.179367,62.588005 140.131409,65.095062 140.723862,66.334183   C146.081161,77.539360 151.633591,88.652016 157.229156,99.741158   C157.714752,100.703522 158.917938,101.303772 159.787796,102.072227   C160.348373,101.831345 160.908951,101.590469 161.469528,101.349594   C160.496628,95.943047 159.768967,90.478531 158.507080,85.140289   C153.783981,65.159653 153.718460,65.175140 164.424133,48.887245  z"
   id="path2" />


<path
   fill="#FFD1EC"
   opacity="1.000000"
   stroke="none"
   d=" M4.507821,119.910049   C3.340535,116.776878 2.513554,113.571548 1.343286,110.683113   C1.000000,102.979103 1.000000,94.958199 1.287494,86.777229   C6.712227,79.398918 11.469459,71.867546 17.089485,65.047119   C23.176241,57.660282 29.629456,50.443100 36.767948,44.103531   C41.235317,40.136143 47.148457,37.696358 52.612293,34.970917   C66.857933,27.864977 80.966362,20.395182 95.608147,14.202059   C106.135330,9.749313 117.573380,11.954757 128.703293,12.807353   C134.818283,13.275786 141.108200,13.687706 147.124985,12.803343   C167.161896,9.858263 187.113892,6.332592 207.081909,2.932415   C207.809845,2.808462 208.364563,1.667174 209.000000,1.000000   C216.020950,1.000000 223.041901,1.000000 230.215378,1.314156   C238.561111,4.764772 246.812546,7.758265 254.935959,11.066134   C274.514587,19.038612 294.044861,27.130514 313.554688,35.270069   C315.142365,35.932457 316.801727,37.054298 317.789215,38.423264   C325.050079,48.489162 332.158478,58.665272 339.295197,68.820503   C348.228333,81.531906 354.169159,95.441467 356.087524,110.951492   C352.681671,108.412170 349.064972,106.108803 345.909607,103.289177   C336.555267,94.930244 330.960144,83.909004 325.049835,73.124413   C321.932526,67.436188 318.634277,61.847263 315.500885,56.167618   C312.918427,51.486538 309.364807,48.363762 304.131500,46.494896   C280.953857,38.217918 257.810059,29.827053 234.849106,20.971443   C225.184799,17.244091 215.765060,18.162483 205.954285,19.422798   C177.384796,23.092897 149.246506,30.930017 120.078499,28.915760   C110.324890,28.242205 101.301491,30.177969 92.551125,34.282459   C78.239418,40.995575 63.399334,46.760143 49.720490,54.568642   C42.995140,58.407776 38.154568,65.742142 32.861778,71.842461   C27.647045,77.852821 22.232895,83.883652 18.202723,90.674881   C14.011103,97.738152 11.392594,105.731766 8.039603,113.297913   C7.057478,115.514114 5.916367,117.659851 4.507821,119.910049  z"
   id="path8" />


<path
   fill="#FFA9D8"
   opacity="1.000000"
   stroke="none"
   d=" M311.844757,239.098297   C311.275970,249.198792 308.197113,258.830292 301.677490,266.185181   C298.259521,270.041046 291.549225,271.542969 286.027954,272.853424   C274.252686,275.648224 262.350525,278.168823 250.358185,279.652069   C245.954727,280.196716 241.149628,277.494019 235.673264,276.046753   C236.530182,277.740814 237.182129,279.047211 237.849289,280.345795   C242.205368,288.824493 246.843719,297.175690 250.757004,305.853943   C251.967819,308.539093 251.209274,312.112244 251.676208,315.639404   C246.645065,316.000000 241.290146,316.000000 235.467606,316.000000   C234.853745,315.385406 234.754196,314.249603 234.554474,314.231689   C227.946579,313.639618 225.136749,308.472595 221.995575,303.802734   C212.366898,289.488068 202.816254,275.120941 193.222946,260.782471   C192.951035,260.376068 192.540680,260.062256 192.591400,259.339020   C207.053238,257.985443 221.113541,256.918488 235.185226,256.032074   C250.737488,255.052429 266.426147,255.128036 281.404175,249.920670   C291.575745,246.384338 301.699585,242.710587 311.844757,239.098297  z"
   id="path14" />
<path
   fill="#E176B6"
   opacity="1.000000"
   stroke="none"
   d=" M70.110535,175.744019   C63.181293,173.127106 56.424587,170.151520 49.327042,167.025146   C51.264400,162.506653 53.443005,158.082901 55.857929,153.792160   C57.321674,151.191452 59.470333,148.950897 60.760452,146.282227   C66.001648,135.440659 74.535385,129.732025 86.313942,127.170280   C102.512024,123.647316 118.357506,118.515953 134.534805,114.877258   C139.637207,113.729591 145.350098,114.881279 150.731400,115.463203   C169.818771,117.527306 188.837784,120.593704 207.974014,121.698174   C219.607452,122.369621 231.404709,120.078911 243.137054,119.240189   C246.408295,119.006332 249.710449,119.204536 253.257187,120.034065   C251.698364,120.580528 250.167099,121.229393 248.576401,121.657387   C235.118149,125.278473 221.656921,128.889420 208.173462,132.414932   C206.435471,132.869354 204.551315,133.064270 202.758484,132.962692   C186.868118,132.062363 170.939987,131.515305 155.107239,129.989700   C134.696274,128.022949 116.052216,134.351364 97.351112,140.855225   C94.057396,142.000702 90.918320,143.655548 87.569252,144.564651   C78.436485,147.043716 74.570183,153.627167 72.999901,162.263733   C72.201118,166.657028 71.195297,171.012695 70.110535,175.744019  z"
   id="path16" />
<path
   fill="#E176B6"
   opacity="1.000000"
   stroke="none"
   d=" M311.840149,238.710266   C301.699585,242.710587 291.575745,246.384338 281.404175,249.920670   C266.426147,255.128036 250.737488,255.052429 235.185226,256.032074   C221.113541,256.918488 207.053238,257.985443 192.564377,258.993286   C189.160751,254.915421 186.180664,250.817062 183.064117,246.399399   C189.412445,245.056595 195.879120,243.895859 202.385666,243.037140   C217.486603,241.044189 232.615372,239.262238 247.716949,237.273956   C265.613403,234.917709 283.493195,232.434723 301.380157,230.006363   C303.675049,229.694794 305.969666,229.381439 308.692261,229.079193   C310.025269,232.167023 310.930420,235.244629 311.840149,238.710266  z"
   id="path18" />
<path
   fill="#E176B6"
   opacity="1.000000"
   stroke="none"
   d=" M143.187469,191.856277   C154.686920,196.137085 164.665710,190.274689 175.091400,188.443451   C175.252701,188.415100 175.399902,188.296219 175.560669,188.276459   C190.654266,186.421875 201.758499,177.853561 211.513550,166.977493   C212.467606,165.913788 213.674347,165.076691 214.763794,164.134415   C215.192276,164.295090 215.620758,164.455750 216.049240,164.616425   C214.732635,170.370041 213.416031,176.123657 211.926971,182.630951   C215.858505,183.395889 219.479126,184.428955 223.162216,184.753830   C233.242538,185.643005 243.361938,186.854980 253.439301,186.647720   C257.667328,186.560745 261.939423,183.429886 265.992096,181.302948   C271.141785,178.600311 276.050751,175.442612 281.146698,172.631989   C282.661224,171.796692 284.455627,171.468903 287.750275,170.360886   C286.510925,173.268021 286.253601,175.124100 285.193237,176.150803   C279.342712,181.815628 273.260437,187.239990 267.325989,192.819565   C259.931000,199.772385 251.394897,196.449432 243.170944,195.533722   C230.490982,194.121811 217.861679,191.826584 205.152313,191.287720   C198.782608,191.017654 192.143158,193.350357 185.875366,195.306030   C176.198380,198.325455 166.666458,201.853592 157.213379,205.527145   C152.972046,207.175339 149.132935,207.219833 145.322128,204.916931   C138.928574,201.053314 132.554474,197.151718 126.296829,193.074799   C125.296745,192.423233 124.945480,190.775803 124.294258,189.588760   C125.599449,189.247360 126.988655,188.433121 128.195114,188.647461   C133.088120,189.516754 137.924988,190.702103 143.187469,191.856277  z"
   id="path20" />
<path
   fill="#E176B6"
   opacity="1.000000"
   stroke="none"
   d=" M237.122498,84.148010   C234.353119,84.522102 231.994385,84.810349 229.635651,85.098602   C229.360779,84.550987 229.085892,84.003372 228.811020,83.455757   C231.620712,81.131004 234.115219,78.163208 237.299408,76.602554   C246.710144,71.990105 251.944077,65.728302 249.140732,54.522488   C248.264572,51.020184 249.004211,47.113651 249.004211,43.392159   C249.633453,43.207108 250.262695,43.022057 250.891937,42.837002   C251.905289,44.648811 253.271637,46.352413 253.866348,48.292549   C255.713287,54.317875 257.214081,60.448483 258.975739,66.501419   C259.371399,67.860947 259.960175,69.750412 261.004547,70.244186   C271.282928,75.103615 281.091827,81.506721 293.377197,79.936378   C298.787445,79.244820 304.286835,79.232231 309.748993,78.982712   C310.651672,78.941467 311.571228,79.268227 312.482971,79.424911   C312.645691,79.965561 312.808380,80.506210 312.971069,81.046860   C306.881866,83.465157 300.792694,85.883453 294.881561,88.231026   C293.934296,100.305389 300.699249,107.681175 309.656403,113.867622   C311.445038,115.102974 312.792664,116.976845 314.343658,118.556290   C313.995941,119.052368 313.648193,119.548447 313.300476,120.044525   C311.492462,119.489044 309.625244,119.074066 307.891052,118.343399   C305.595795,117.376343 303.449707,116.057442 301.160828,115.072731   C291.741821,111.020561 284.234283,105.403702 283.175323,94.143478   C282.805847,90.214897 280.231567,88.100082 276.679199,86.812599   C271.527832,84.945595 266.533203,82.564293 261.277679,81.097794   C258.234772,80.248695 254.741302,80.297737 251.575500,80.773590   C246.837006,81.485847 242.208450,82.929573 237.122498,84.148010  z"
   id="path22" />
<path
   fill="#E176B6"
   opacity="1.000000"
   stroke="none"
   d=" M48.590012,94.647217   C44.674484,95.169792 43.850613,93.339302 46.350670,91.292778   C56.089600,83.320580 65.853897,75.318794 76.206146,68.196274   C79.018494,66.261322 83.970634,66.862701 87.862617,67.200249   C94.288986,67.757614 100.644516,69.098595 107.043968,70.010643   C111.531837,70.650261 114.669243,72.854935 116.532181,77.076302   C118.950691,82.556580 121.679611,87.900246 124.078163,93.388687   C124.747971,94.921379 124.723991,96.757256 125.018280,98.454048   C124.625496,98.728691 124.232719,99.003342 123.839935,99.277985   C122.285675,98.048950 120.519737,97.008766 119.220398,95.552307   C116.348404,92.333000 113.684608,88.925514 110.985931,85.554733   C108.463943,82.404648 105.403847,81.297363 101.223457,80.759064   C83.656273,78.496964 68.674080,85.564705 53.603584,92.713547   C52.105171,93.424332 50.505310,93.921257 48.590012,94.647217  z"
   id="path24" />
<path
   fill="#E177B6"
   opacity="1.000000"
   stroke="none"
   d=" M164.210815,49.181030   C153.718460,65.175140 153.783981,65.159653 158.507080,85.140289   C159.768967,90.478531 160.496628,95.943047 161.469528,101.349594   C160.908951,101.590469 160.348373,101.831345 159.787796,102.072227   C158.917938,101.303772 157.714752,100.703522 157.229156,99.741158   C151.633591,88.652016 146.081161,77.539360 140.723862,66.334183   C140.131409,65.095062 140.179367,62.588005 141.010910,61.777069   C150.363708,52.656082 159.920593,43.744034 169.462708,34.818695   C169.859116,34.447914 170.649414,34.498253 172.962418,33.942303   C169.679031,39.689358 167.051590,44.288300 164.210815,49.181030  z"
   id="path26" />
</svg>
